<?xml version="1.0" encoding="UTF-8" standalone="no"?>
<!-- Created with Inkscape (http://www.inkscape.org/) -->

<svg
   xmlns:dc="http://purl.org/dc/elements/1.1/"
   xmlns:cc="http://creativecommons.org/ns#"
   xmlns:rdf="http://www.w3.org/1999/02/22-rdf-syntax-ns#"
   xmlns:svg="http://www.w3.org/2000/svg"
   xmlns="http://www.w3.org/2000/svg"
   xmlns:sodipodi="http://sodipodi.sourceforge.net/DTD/sodipodi-0.dtd"
   xmlns:inkscape="http://www.inkscape.org/namespaces/inkscape"
   width="4.6796932in"
   height="1.2841965in"
   viewBox="0 0 421.17239 115.57768"
   id="svg2"
   version="1.1"
   inkscape:version="0.91 r13725"
   sodipodi:docname="logo.svg">
  <defs
     id="defs4" />
  <sodipodi:namedview
     id="base"
     pagecolor="#ffffff"
     bordercolor="#666666"
     borderopacity="1.0"
     inkscape:pageopacity="0.0"
     inkscape:pageshadow="2"
     inkscape:zoom="0.98994949"
     inkscape:cx="257.00146"
     inkscape:cy="147.8369"
     inkscape:document-units="px"
     inkscape:current-layer="layer1"
     showgrid="false"
     inkscape:window-width="2560"
     inkscape:window-height="1377"
     inkscape:window-x="1699"
     inkscape:window-y="-8"
     inkscape:window-maximized="1"
     fit-margin-top="0"
     fit-margin-left="0"
     fit-margin-right="0"
     fit-margin-bottom="0"
     units="in"
     inkscape:snap-text-baseline="true" />
  <metadata
     id="metadata7">
    <rdf:RDF>
      <cc:Work
         rdf:about="">
        <dc:format>image/svg+xml</dc:format>
        <dc:type
           rdf:resource="http://purl.org/dc/dcmitype/StillImage" />
        <dc:title></dc:title>
      </cc:Work>
    </rdf:RDF>
  </metadata>
  <g
     inkscape:label="Layer 1"
     inkscape:groupmode="layer"
     id="layer1"
     transform="translate(-292.06677,-71.421606)">
    <path
       inkscape:connector-curvature="0"
       id="path4145"
       d="m 292.06677,71.421606 293.31522,0 0,94.954344 -293.31522,0 z"
       style="opacity:1;fill:#ffffff;fill-opacity:1;fill-rule:evenodd;stroke:none;stroke-width:1;stroke-linejoin:miter;stroke-miterlimit:4;stroke-dasharray:none;stroke-opacity:1" />
    <path
       inkscape:connector-curvature="0"
       id="path4147"
       d="m 419.92392,71.421606 293.31522,0 0,94.954344 -293.31522,0 z"
       style="opacity:1;fill:#e05e15;fill-opacity:1;fill-rule:evenodd;stroke:none;stroke-width:1;stroke-linejoin:miter;stroke-miterlimit:4;stroke-dasharray:none;stroke-opacity:1" />
    <g
       transform="translate(237.38585,-386.31622)"
       id="g4149">
      <path
         inkscape:connector-curvature="0"
         id="path4151"
         style="font-style:normal;font-variant:normal;font-weight:normal;font-stretch:normal;font-size:141px;line-height:125%;font-family:Montserrat;-inkscape-font-specification:'Montserrat, Normal';text-align:start;letter-spacing:30px;word-spacing:0px;writing-mode:lr-tb;text-anchor:start;fill:#e05e15;fill-opacity:1;stroke:none;stroke-width:1px;stroke-linecap:butt;stroke-linejoin:miter;stroke-opacity:1"
         d="m 78.283527,520.38856 q 3.754285,4.38 10.167857,4.38 6.413571,0 10.167856,-4.38 3.75429,-4.38 3.75429,-11.88857 l 0,-30.26893 9.22928,0 0,30.66 q 0,11.81035 -6.49179,18.22392 -6.49178,6.33536 -16.659636,6.33536 -10.167857,0 -16.659642,-6.33536 -6.491785,-6.41357 -6.491785,-18.22392 l 0,-30.66 9.229285,0 0,30.26893 q 0,7.50857 3.754285,11.88857 z" />
      <path
         inkscape:connector-curvature="0"
         id="path4153"
         style="font-style:normal;font-variant:normal;font-weight:normal;font-stretch:normal;font-size:141px;line-height:125%;font-family:Montserrat;-inkscape-font-specification:'Montserrat, Normal';text-align:start;letter-spacing:30px;word-spacing:0px;writing-mode:lr-tb;text-anchor:start;fill:#e05e15;fill-opacity:1;stroke:none;stroke-width:1px;stroke-linecap:butt;stroke-linejoin:miter;stroke-opacity:1"
         d="m 156.67963,486.6782 0,46.22464 -9.22928,0 0,-46.22464 -16.58143,0 0,-8.44714 42.39214,0 0,8.44714 -16.58143,0 z" />
      <path
         inkscape:connector-curvature="0"
         id="path4155"
         style="font-style:normal;font-variant:normal;font-weight:normal;font-stretch:normal;font-size:141px;line-height:125%;font-family:Montserrat;-inkscape-font-specification:'Montserrat, Normal';text-align:start;letter-spacing:30px;word-spacing:0px;writing-mode:lr-tb;text-anchor:start;fill:#ffffff;fill-opacity:1;stroke:none;stroke-width:1px;stroke-linecap:butt;stroke-linejoin:miter;stroke-opacity:1"
         d="m 213.48859,485.42678 q -3.98893,0 -6.57,1.6425 -2.58107,1.6425 -2.58107,5.00571 0,3.285 2.58107,5.08393 2.58107,1.72071 10.95,3.75428 8.44714,2.03357 12.67071,5.70964 4.30179,3.67608 4.30179,10.87179 0,7.1175 -5.39679,11.57571 -5.39678,4.45822 -14.15678,4.45822 -12.82714,0 -22.76035,-8.83822 l 5.78785,-6.96107 q 8.29072,7.19572 17.20714,7.19572 4.45822,0 7.03929,-1.87715 2.65928,-1.95535 2.65928,-5.08393 0,-3.20678 -2.50285,-4.92749 -2.42465,-1.79893 -8.44715,-3.20679 -6.0225,-1.48607 -9.15107,-2.65929 -3.12857,-1.25142 -5.55321,-3.20678 -4.84928,-3.67607 -4.84928,-11.26286 0,-7.58678 5.47499,-11.65392 5.55322,-4.14536 13.6875,-4.14536 5.24036,0 10.4025,1.72071 5.16214,1.72072 8.91643,4.84929 l -4.9275,6.96107 q -2.42464,-2.19 -6.57,-3.59786 -4.14536,-1.40785 -8.2125,-1.40785 z" />
      <path
         inkscape:connector-curvature="0"
         id="path4157"
         style="font-style:normal;font-variant:normal;font-weight:normal;font-stretch:normal;font-size:141px;line-height:125%;font-family:Montserrat;-inkscape-font-specification:'Montserrat, Normal';text-align:start;letter-spacing:30px;word-spacing:0px;writing-mode:lr-tb;text-anchor:start;fill:#ffffff;fill-opacity:1;stroke:none;stroke-width:1px;stroke-linecap:butt;stroke-linejoin:miter;stroke-opacity:1"
         d="m 296.57755,491.13642 q -5.55321,-5.78786 -13.6875,-5.78786 -8.13428,0 -13.76571,5.78786 -5.55321,5.78785 -5.55321,14.07857 0,8.2125 5.55321,14.00035 5.63143,5.78786 13.76571,5.78786 8.13429,0 13.6875,-5.78786 5.63143,-5.78785 5.63143,-14.00035 0,-8.29072 -5.63143,-14.07857 z m 6.80464,34.25785 q -8.29071,8.05607 -20.49214,8.05607 -12.20142,0 -20.49214,-8.05607 -8.29071,-8.13428 -8.29071,-20.17928 0,-12.12321 8.29071,-20.17929 8.29072,-8.13428 20.49214,-8.13428 12.20143,0 20.49214,8.13428 8.29072,8.05608 8.29072,20.17929 0,12.045 -8.29072,20.17928 z" />
      <path
         inkscape:connector-curvature="0"
         id="path4159"
         style="font-style:normal;font-variant:normal;font-weight:normal;font-stretch:normal;font-size:141px;line-height:125%;font-family:Montserrat;-inkscape-font-specification:'Montserrat, Normal';text-align:start;letter-spacing:30px;word-spacing:0px;writing-mode:lr-tb;text-anchor:start;fill:#ffffff;fill-opacity:1;stroke:none;stroke-width:1px;stroke-linecap:butt;stroke-linejoin:miter;stroke-opacity:1"
         d="m 346.26901,520.46677 -5.475,12.43607 -9.855,0 24.09,-54.67178 9.855,0 24.09,54.67178 -9.855,0 -5.475,-12.43607 -27.375,0 z m 23.62071,-8.52535 -9.93321,-22.52572 -9.93321,22.52572 19.86642,0 z" />
      <path
         inkscape:connector-curvature="0"
         id="path4161"
         style="font-style:normal;font-variant:normal;font-weight:normal;font-stretch:normal;font-size:141px;line-height:125%;font-family:Montserrat;-inkscape-font-specification:'Montserrat, Normal';text-align:start;letter-spacing:30px;word-spacing:0px;writing-mode:lr-tb;text-anchor:start;fill:#ffffff;fill-opacity:1;stroke:none;stroke-width:1px;stroke-linecap:butt;stroke-linejoin:miter;stroke-opacity:1"
         d="m 423.57013,520.46677 -5.475,12.43607 -9.855,0 24.09,-54.67178 9.855,0 24.09,54.67178 -9.855,0 -5.475,-12.43607 -27.375,0 z m 23.62071,-8.52535 -9.93321,-22.52572 -9.93321,22.52572 19.86642,0 z" />
    </g>
    <path
       inkscape:connector-curvature="0"
       id="path4289"
       style="font-style:normal;font-variant:normal;font-weight:normal;font-stretch:normal;font-size:medium;line-height:125%;font-family:'Avenir LT Std';-inkscape-font-specification:'Avenir LT Std, Normal';text-align:start;letter-spacing:1.54999995px;word-spacing:0px;writing-mode:lr-tb;text-anchor:start;fill:#000000;fill-opacity:1;stroke:none;stroke-width:1px;stroke-linecap:butt;stroke-linejoin:miter;stroke-opacity:1"
       d="m 309.79066,177.36606 -0.95536,0 0,5.78525 c 0,2.70686 -1.76476,2.97223 -2.48128,2.97223 -0.71653,0 -2.48129,-0.26537 -2.48129,-2.97223 l 0,-5.78525 -0.95536,0 0,5.8914 c 0,1.56573 0.62363,3.74183 3.43665,3.74183 2.81301,0 3.43664,-2.1761 3.43664,-3.74183 l 0,-5.8914 z" />
    <path
       inkscape:connector-curvature="0"
       id="path4291"
       style="font-style:normal;font-variant:normal;font-weight:normal;font-stretch:normal;font-size:medium;line-height:125%;font-family:'Avenir LT Std';-inkscape-font-specification:'Avenir LT Std, Normal';text-align:start;letter-spacing:1.54999995px;word-spacing:0px;writing-mode:lr-tb;text-anchor:start;fill:#000000;fill-opacity:1;stroke:none;stroke-width:1px;stroke-linecap:butt;stroke-linejoin:miter;stroke-opacity:1"
       d="m 316.7351,178.24181 3.14474,0 0,-0.87575 -7.24483,0 0,0.87575 3.14473,0 0,8.51864 0.95536,0 0,-8.51864 z" />
    <path
       inkscape:connector-curvature="0"
       id="path4293"
       style="font-style:normal;font-variant:normal;font-weight:normal;font-stretch:normal;font-size:medium;line-height:125%;font-family:'Avenir LT Std';-inkscape-font-specification:'Avenir LT Std, Normal';text-align:start;letter-spacing:1.54999995px;word-spacing:0px;writing-mode:lr-tb;text-anchor:start;fill:#000000;fill-opacity:1;stroke:none;stroke-width:1px;stroke-linecap:butt;stroke-linejoin:miter;stroke-opacity:1"
       d="m 329.29217,184.29243 4.80335,0 1.03497,2.46802 1.11459,0 -4.08683,-9.39439 -0.92882,0 -4.08683,9.39439 1.11459,0 1.03498,-2.46802 z m 2.40167,-5.81178 2.03015,4.93604 -4.07356,0 2.04341,-4.93604 z" />
    <path
       inkscape:connector-curvature="0"
       id="path4295"
       style="font-style:normal;font-variant:normal;font-weight:normal;font-stretch:normal;font-size:medium;line-height:125%;font-family:'Avenir LT Std';-inkscape-font-specification:'Avenir LT Std, Normal';text-align:start;letter-spacing:1.54999995px;word-spacing:0px;writing-mode:lr-tb;text-anchor:start;fill:#000000;fill-opacity:1;stroke:none;stroke-width:1px;stroke-linecap:butt;stroke-linejoin:miter;stroke-opacity:1"
       d="m 345.77696,177.36606 -0.95537,0 0,5.78525 c 0,2.70686 -1.76476,2.97223 -2.48128,2.97223 -0.71652,0 -2.48129,-0.26537 -2.48129,-2.97223 l 0,-5.78525 -0.95536,0 0,5.8914 c 0,1.56573 0.62364,3.74183 3.43665,3.74183 2.81301,0 3.43665,-2.1761 3.43665,-3.74183 l 0,-5.8914 z" />
    <path
       inkscape:connector-curvature="0"
       id="path4297"
       style="font-style:normal;font-variant:normal;font-weight:normal;font-stretch:normal;font-size:medium;line-height:125%;font-family:'Avenir LT Std';-inkscape-font-specification:'Avenir LT Std, Normal';text-align:start;letter-spacing:1.54999995px;word-spacing:0px;writing-mode:lr-tb;text-anchor:start;fill:#000000;fill-opacity:1;stroke:none;stroke-width:1px;stroke-linecap:butt;stroke-linejoin:miter;stroke-opacity:1"
       d="m 354.99038,178.26835 c -0.74306,-0.84922 -1.59227,-1.14113 -2.65378,-1.14113 -1.52593,0 -3.03859,0.84921 -3.03859,2.66705 0,3.43665 4.81662,1.9638 4.81662,4.61758 0,1.10132 -1.07478,1.71169 -2.01688,1.71169 -0.9819,0 -1.73822,-0.45114 -2.13629,-1.14112 l -0.86248,0.62364 c 0.71652,0.9819 1.81784,1.39323 2.95897,1.39323 1.48612,0 3.09166,-1.00843 3.09166,-2.72013 0,-3.38357 -4.81662,-2.04341 -4.81662,-4.57777 0,-1.18094 1.02171,-1.69842 2.00361,-1.69842 0.79613,0 1.4065,0.30518 1.81784,0.91555 l 0.83594,-0.65017 z" />
    <path
       inkscape:connector-curvature="0"
       id="path4299"
       style="font-style:normal;font-variant:normal;font-weight:normal;font-stretch:normal;font-size:medium;line-height:125%;font-family:'Avenir LT Std';-inkscape-font-specification:'Avenir LT Std, Normal';text-align:start;letter-spacing:1.54999995px;word-spacing:0px;writing-mode:lr-tb;text-anchor:start;fill:#000000;fill-opacity:1;stroke:none;stroke-width:1px;stroke-linecap:butt;stroke-linejoin:miter;stroke-opacity:1"
       d="m 361.65741,178.24181 3.14474,0 0,-0.87575 -7.24483,0 0,0.87575 3.14473,0 0,8.51864 0.95536,0 0,-8.51864 z" />
    <path
       inkscape:connector-curvature="0"
       id="path4301"
       style="font-style:normal;font-variant:normal;font-weight:normal;font-stretch:normal;font-size:medium;line-height:125%;font-family:'Avenir LT Std';-inkscape-font-specification:'Avenir LT Std, Normal';text-align:start;letter-spacing:1.54999995px;word-spacing:0px;writing-mode:lr-tb;text-anchor:start;fill:#000000;fill-opacity:1;stroke:none;stroke-width:1px;stroke-linecap:butt;stroke-linejoin:miter;stroke-opacity:1"
       d="m 368.76999,177.36606 -0.95536,0 0,9.39439 0.95536,0 0,-9.39439 z" />
    <path
       inkscape:connector-curvature="0"
       id="path4303"
       style="font-style:normal;font-variant:normal;font-weight:normal;font-stretch:normal;font-size:medium;line-height:125%;font-family:'Avenir LT Std';-inkscape-font-specification:'Avenir LT Std, Normal';text-align:start;letter-spacing:1.54999995px;word-spacing:0px;writing-mode:lr-tb;text-anchor:start;fill:#000000;fill-opacity:1;stroke:none;stroke-width:1px;stroke-linecap:butt;stroke-linejoin:miter;stroke-opacity:1"
       d="m 374.05748,177.36606 -1.19421,0 0,9.39439 0.95536,0 0,-8.04096 0.0265,0 5.59949,8.04096 1.1942,0 0,-9.39439 -0.95536,0 0,7.96135 -0.0265,0 -5.59948,-7.96135 z" />
    <path
       inkscape:connector-curvature="0"
       id="path4305"
       style="font-style:normal;font-variant:normal;font-weight:normal;font-stretch:normal;font-size:medium;line-height:125%;font-family:'Avenir LT Std';-inkscape-font-specification:'Avenir LT Std, Normal';text-align:start;letter-spacing:1.54999995px;word-spacing:0px;writing-mode:lr-tb;text-anchor:start;fill:#000000;fill-opacity:1;stroke:none;stroke-width:1px;stroke-linecap:butt;stroke-linejoin:miter;stroke-opacity:1"
       d="m 393.79298,178.26835 c -0.74306,-0.84922 -1.59227,-1.14113 -2.65378,-1.14113 -1.52593,0 -3.03859,0.84921 -3.03859,2.66705 0,3.43665 4.81662,1.9638 4.81662,4.61758 0,1.10132 -1.07478,1.71169 -2.01687,1.71169 -0.9819,0 -1.73823,-0.45114 -2.1363,-1.14112 l -0.86248,0.62364 c 0.71652,0.9819 1.81784,1.39323 2.95897,1.39323 1.48612,0 3.09166,-1.00843 3.09166,-2.72013 0,-3.38357 -4.81662,-2.04341 -4.81662,-4.57777 0,-1.18094 1.02171,-1.69842 2.00361,-1.69842 0.79613,0 1.4065,0.30518 1.81784,0.91555 l 0.83594,-0.65017 z" />
    <path
       inkscape:connector-curvature="0"
       id="path4307"
       style="font-style:normal;font-variant:normal;font-weight:normal;font-stretch:normal;font-size:medium;line-height:125%;font-family:'Avenir LT Std';-inkscape-font-specification:'Avenir LT Std, Normal';text-align:start;letter-spacing:1.54999995px;word-spacing:0px;writing-mode:lr-tb;text-anchor:start;fill:#000000;fill-opacity:1;stroke:none;stroke-width:1px;stroke-linecap:butt;stroke-linejoin:miter;stroke-opacity:1"
       d="m 404.40088,184.71704 c -0.70325,1.08805 -1.71169,1.4065 -2.69359,1.4065 -2.41494,0 -3.86125,-1.89745 -3.86125,-4.06028 0,-2.16284 1.44631,-4.06029 3.86125,-4.06029 0.99517,0 2.04342,0.62364 2.41495,1.23401 l 0.83594,-0.62364 c -0.82267,-1.04825 -2.08322,-1.48612 -3.25089,-1.48612 -2.79974,0 -4.89623,2.08322 -4.89623,4.93604 0,2.85281 2.09649,4.93603 4.89623,4.93603 1.55247,0 2.85282,-0.75633 3.47646,-1.72496 l -0.78287,-0.55729 z" />
    <path
       inkscape:connector-curvature="0"
       id="path4309"
       style="font-style:normal;font-variant:normal;font-weight:normal;font-stretch:normal;font-size:medium;line-height:125%;font-family:'Avenir LT Std';-inkscape-font-specification:'Avenir LT Std, Normal';text-align:start;letter-spacing:1.54999995px;word-spacing:0px;writing-mode:lr-tb;text-anchor:start;fill:#000000;fill-opacity:1;stroke:none;stroke-width:1px;stroke-linecap:butt;stroke-linejoin:miter;stroke-opacity:1"
       d="m 409.28304,177.36606 -0.95536,0 0,9.39439 0.95536,0 0,-9.39439 z" />
    <path
       inkscape:connector-curvature="0"
       id="path4311"
       style="font-style:normal;font-variant:normal;font-weight:normal;font-stretch:normal;font-size:medium;line-height:125%;font-family:'Avenir LT Std';-inkscape-font-specification:'Avenir LT Std, Normal';text-align:start;letter-spacing:1.54999995px;word-spacing:0px;writing-mode:lr-tb;text-anchor:start;fill:#000000;fill-opacity:1;stroke:none;stroke-width:1px;stroke-linecap:butt;stroke-linejoin:miter;stroke-opacity:1"
       d="m 414.33168,182.31537 4.55124,0 0,-0.87575 -4.55124,0 0,-3.19781 4.86969,0 0,-0.87575 -5.82505,0 0,9.39439 5.98428,0 0,-0.87575 -5.02892,0 0,-3.56933 z" />
    <path
       inkscape:connector-curvature="0"
       id="path4313"
       style="font-style:normal;font-variant:normal;font-weight:normal;font-stretch:normal;font-size:medium;line-height:125%;font-family:'Avenir LT Std';-inkscape-font-specification:'Avenir LT Std, Normal';text-align:start;letter-spacing:1.54999995px;word-spacing:0px;writing-mode:lr-tb;text-anchor:start;fill:#000000;fill-opacity:1;stroke:none;stroke-width:1px;stroke-linecap:butt;stroke-linejoin:miter;stroke-opacity:1"
       d="m 423.99894,177.36606 -1.1942,0 0,9.39439 0.95536,0 0,-8.04096 0.0265,0 5.59948,8.04096 1.1942,0 0,-9.39439 -0.95536,0 0,7.96135 -0.0265,0 -5.59948,-7.96135 z" />
    <path
       inkscape:connector-curvature="0"
       id="path4315"
       style="font-style:normal;font-variant:normal;font-weight:normal;font-stretch:normal;font-size:medium;line-height:125%;font-family:'Avenir LT Std';-inkscape-font-specification:'Avenir LT Std, Normal';text-align:start;letter-spacing:1.54999995px;word-spacing:0px;writing-mode:lr-tb;text-anchor:start;fill:#000000;fill-opacity:1;stroke:none;stroke-width:1px;stroke-linecap:butt;stroke-linejoin:miter;stroke-opacity:1"
       d="m 441.62215,184.71704 c -0.70325,1.08805 -1.71169,1.4065 -2.69359,1.4065 -2.41494,0 -3.86125,-1.89745 -3.86125,-4.06028 0,-2.16284 1.44631,-4.06029 3.86125,-4.06029 0.99517,0 2.04341,0.62364 2.41494,1.23401 l 0.83595,-0.62364 c -0.82268,-1.04825 -2.08322,-1.48612 -3.25089,-1.48612 -2.79974,0 -4.89623,2.08322 -4.89623,4.93604 0,2.85281 2.09649,4.93603 4.89623,4.93603 1.55246,0 2.85282,-0.75633 3.47646,-1.72496 l -0.78287,-0.55729 z" />
    <path
       inkscape:connector-curvature="0"
       id="path4317"
       style="font-style:normal;font-variant:normal;font-weight:normal;font-stretch:normal;font-size:medium;line-height:125%;font-family:'Avenir LT Std';-inkscape-font-specification:'Avenir LT Std, Normal';text-align:start;letter-spacing:1.54999995px;word-spacing:0px;writing-mode:lr-tb;text-anchor:start;fill:#000000;fill-opacity:1;stroke:none;stroke-width:1px;stroke-linecap:butt;stroke-linejoin:miter;stroke-opacity:1"
       d="m 446.50432,182.31537 4.55123,0 0,-0.87575 -4.55123,0 0,-3.19781 4.86969,0 0,-0.87575 -5.82506,0 0,9.39439 5.98429,0 0,-0.87575 -5.02892,0 0,-3.56933 z" />
    <path
       inkscape:connector-curvature="0"
       id="path4319"
       style="font-style:normal;font-variant:normal;font-weight:normal;font-stretch:normal;font-size:medium;line-height:125%;font-family:'Avenir LT Std';-inkscape-font-specification:'Avenir LT Std, Normal';text-align:start;letter-spacing:1.54999995px;word-spacing:0px;writing-mode:lr-tb;text-anchor:start;fill:#000000;fill-opacity:1;stroke:none;stroke-width:1px;stroke-linecap:butt;stroke-linejoin:miter;stroke-opacity:1"
       d="m 468.58846,182.06326 c 0,-2.85282 -2.09649,-4.93604 -4.89623,-4.93604 -2.79974,0 -4.89623,2.08322 -4.89623,4.93604 0,2.85281 2.09649,4.93603 4.89623,4.93603 2.79974,0 4.89623,-2.08322 4.89623,-4.93603 z m -1.03498,0 c 0,2.16283 -1.44631,4.06028 -3.86125,4.06028 -2.41494,0 -3.86126,-1.89745 -3.86126,-4.06028 0,-2.16284 1.44632,-4.06029 3.86126,-4.06029 2.41494,0 3.86125,1.89745 3.86125,4.06029 z" />
    <path
       inkscape:connector-curvature="0"
       id="path4321"
       style="font-style:normal;font-variant:normal;font-weight:normal;font-stretch:normal;font-size:medium;line-height:125%;font-family:'Avenir LT Std';-inkscape-font-specification:'Avenir LT Std, Normal';text-align:start;letter-spacing:1.54999995px;word-spacing:0px;writing-mode:lr-tb;text-anchor:start;fill:#000000;fill-opacity:1;stroke:none;stroke-width:1px;stroke-linecap:butt;stroke-linejoin:miter;stroke-opacity:1"
       d="m 473.00434,177.36606 -0.95536,0 0,9.39439 5.3341,0 0,-0.87575 -4.37874,0 0,-8.51864 z" />
    <path
       inkscape:connector-curvature="0"
       id="path4323"
       style="font-style:normal;font-variant:normal;font-weight:normal;font-stretch:normal;font-size:medium;line-height:125%;font-family:'Avenir LT Std';-inkscape-font-specification:'Avenir LT Std, Normal';text-align:start;letter-spacing:1.54999995px;word-spacing:0px;writing-mode:lr-tb;text-anchor:start;fill:#000000;fill-opacity:1;stroke:none;stroke-width:1px;stroke-linecap:butt;stroke-linejoin:miter;stroke-opacity:1"
       d="m 481.9497,182.71343 3.51626,-5.34737 -1.1942,0 -2.79974,4.43182 -2.79975,-4.43182 -1.1942,0 3.51626,5.34737 0,4.04702 0.95537,0 0,-4.04702 z" />
    <path
       inkscape:connector-curvature="0"
       id="path4325"
       style="font-style:normal;font-variant:normal;font-weight:normal;font-stretch:normal;font-size:medium;line-height:125%;font-family:'Avenir LT Std';-inkscape-font-specification:'Avenir LT Std, Normal';text-align:start;letter-spacing:1.54999995px;word-spacing:0px;writing-mode:lr-tb;text-anchor:start;fill:#000000;fill-opacity:1;stroke:none;stroke-width:1px;stroke-linecap:butt;stroke-linejoin:miter;stroke-opacity:1"
       d="m 489.56648,177.36606 -1.45958,0 0,9.39439 0.95536,0 0,-8.12057 0.0265,0 3.39685,8.12057 0.50421,0 3.39685,-8.12057 0.0265,0 0,8.12057 0.95537,0 0,-9.39439 -1.45958,0 -3.17128,7.6429 -3.17127,-7.6429 z" />
    <path
       inkscape:connector-curvature="0"
       id="path4327"
       style="font-style:normal;font-variant:normal;font-weight:normal;font-stretch:normal;font-size:medium;line-height:125%;font-family:'Avenir LT Std';-inkscape-font-specification:'Avenir LT Std, Normal';text-align:start;letter-spacing:1.54999995px;word-spacing:0px;writing-mode:lr-tb;text-anchor:start;fill:#000000;fill-opacity:1;stroke:none;stroke-width:1px;stroke-linecap:butt;stroke-linejoin:miter;stroke-opacity:1"
       d="m 501.47453,186.76045 0.95536,0 0,-4.36547 1.77804,0 c 1.91072,0 3.09166,-0.83594 3.09166,-2.5211 0,-1.68515 -1.18094,-2.50782 -3.09166,-2.50782 l -2.7334,0 0,9.39439 z m 0.95536,-8.51864 1.5392,0 c 1.71169,0 2.29552,0.72979 2.29552,1.63207 0,0.90229 -0.58383,1.64535 -2.29552,1.64535 l -1.5392,0 0,-3.27742 z" />
    <path
       inkscape:connector-curvature="0"
       id="path4329"
       style="font-style:normal;font-variant:normal;font-weight:normal;font-stretch:normal;font-size:medium;line-height:125%;font-family:'Avenir LT Std';-inkscape-font-specification:'Avenir LT Std, Normal';text-align:start;letter-spacing:1.54999995px;word-spacing:0px;writing-mode:lr-tb;text-anchor:start;fill:#000000;fill-opacity:1;stroke:none;stroke-width:1px;stroke-linecap:butt;stroke-linejoin:miter;stroke-opacity:1"
       d="m 511.59916,177.36606 -0.95536,0 0,9.39439 0.95536,0 0,-9.39439 z" />
    <path
       inkscape:connector-curvature="0"
       id="path4331"
       style="font-style:normal;font-variant:normal;font-weight:normal;font-stretch:normal;font-size:medium;line-height:125%;font-family:'Avenir LT Std';-inkscape-font-specification:'Avenir LT Std, Normal';text-align:start;letter-spacing:1.54999995px;word-spacing:0px;writing-mode:lr-tb;text-anchor:start;fill:#000000;fill-opacity:1;stroke:none;stroke-width:1px;stroke-linecap:butt;stroke-linejoin:miter;stroke-opacity:1"
       d="m 516.56819,184.29243 4.80335,0 1.03498,2.46802 1.11458,0 -4.08682,-9.39439 -0.92883,0 -4.08682,9.39439 1.11459,0 1.03497,-2.46802 z m 2.40168,-5.81178 2.03014,4.93604 -4.07356,0 2.04342,-4.93604 z" />
    <path
       inkscape:connector-curvature="0"
       id="path4333"
       style="font-style:normal;font-variant:normal;font-weight:normal;font-stretch:normal;font-size:medium;line-height:125%;font-family:'Avenir LT Std';-inkscape-font-specification:'Avenir LT Std, Normal';text-align:start;letter-spacing:1.54999995px;word-spacing:0px;writing-mode:lr-tb;text-anchor:start;fill:#000000;fill-opacity:1;stroke:none;stroke-width:1px;stroke-linecap:butt;stroke-linejoin:miter;stroke-opacity:1"
       d="m 526.20621,186.76045 3.11819,0 c 2.3486,0 4.93604,-1.56573 4.93604,-4.69719 0,-3.13147 -2.58744,-4.6972 -4.93604,-4.6972 l -3.11819,0 0,9.39439 z m 0.95536,-8.51864 1.85765,0 c 2.86608,0 4.20624,1.88418 4.20624,3.82145 0,1.93726 -1.34016,3.82144 -4.20624,3.82144 l -1.85765,0 0,-7.64289 z" />
    <path
       inkscape:connector-curvature="0"
       id="path4335"
       style="font-style:normal;font-variant:normal;font-weight:normal;font-stretch:normal;font-size:medium;line-height:125%;font-family:'Avenir LT Std';-inkscape-font-specification:'Avenir LT Std, Normal';text-align:start;letter-spacing:1.54999995px;word-spacing:0px;writing-mode:lr-tb;text-anchor:start;fill:#000000;fill-opacity:1;stroke:none;stroke-width:1px;stroke-linecap:butt;stroke-linejoin:miter;stroke-opacity:1"
       d="m 543.67275,184.29243 4.80335,0 1.03498,2.46802 1.11459,0 -4.08683,-9.39439 -0.92882,0 -4.08683,9.39439 1.11459,0 1.03497,-2.46802 z m 2.40168,-5.81178 2.03014,4.93604 -4.07356,0 2.04342,-4.93604 z" />
    <path
       inkscape:connector-curvature="0"
       id="path4337"
       style="font-style:normal;font-variant:normal;font-weight:normal;font-stretch:normal;font-size:medium;line-height:125%;font-family:'Avenir LT Std';-inkscape-font-specification:'Avenir LT Std, Normal';text-align:start;letter-spacing:1.54999995px;word-spacing:0px;writing-mode:lr-tb;text-anchor:start;fill:#000000;fill-opacity:1;stroke:none;stroke-width:1px;stroke-linecap:butt;stroke-linejoin:miter;stroke-opacity:1"
       d="m 554.39884,177.36606 -0.95537,0 0,9.39439 5.33411,0 0,-0.87575 -4.37874,0 0,-8.51864 z" />
    <path
       inkscape:connector-curvature="0"
       id="path4339"
       style="font-style:normal;font-variant:normal;font-weight:normal;font-stretch:normal;font-size:medium;line-height:125%;font-family:'Avenir LT Std';-inkscape-font-specification:'Avenir LT Std, Normal';text-align:start;letter-spacing:1.54999995px;word-spacing:0px;writing-mode:lr-tb;text-anchor:start;fill:#000000;fill-opacity:1;stroke:none;stroke-width:1px;stroke-linecap:butt;stroke-linejoin:miter;stroke-opacity:1"
       d="m 568.34201,177.36606 -0.95536,0 0,5.78525 c 0,2.70686 -1.76477,2.97223 -2.48129,2.97223 -0.71652,0 -2.48129,-0.26537 -2.48129,-2.97223 l 0,-5.78525 -0.95536,0 0,5.8914 c 0,1.56573 0.62364,3.74183 3.43665,3.74183 2.81301,0 3.43665,-2.1761 3.43665,-3.74183 l 0,-5.8914 z" />
    <path
       inkscape:connector-curvature="0"
       id="path4341"
       style="font-style:normal;font-variant:normal;font-weight:normal;font-stretch:normal;font-size:medium;line-height:125%;font-family:'Avenir LT Std';-inkscape-font-specification:'Avenir LT Std, Normal';text-align:start;letter-spacing:1.54999995px;word-spacing:0px;writing-mode:lr-tb;text-anchor:start;fill:#000000;fill-opacity:1;stroke:none;stroke-width:1px;stroke-linecap:butt;stroke-linejoin:miter;stroke-opacity:1"
       d="m 573.73397,177.36606 -1.45958,0 0,9.39439 0.95536,0 0,-8.12057 0.0265,0 3.39684,8.12057 0.50422,0 3.39685,-8.12057 0.0265,0 0,8.12057 0.95537,0 0,-9.39439 -1.45959,0 -3.17127,7.6429 -3.17127,-7.6429 z" />
    <path
       inkscape:connector-curvature="0"
       id="path4343"
       style="font-style:normal;font-variant:normal;font-weight:normal;font-stretch:normal;font-size:medium;line-height:125%;font-family:'Avenir LT Std';-inkscape-font-specification:'Avenir LT Std, Normal';text-align:start;letter-spacing:1.54999995px;word-spacing:0px;writing-mode:lr-tb;text-anchor:start;fill:#000000;fill-opacity:1;stroke:none;stroke-width:1px;stroke-linecap:butt;stroke-linejoin:miter;stroke-opacity:1"
       d="m 586.83624,177.36606 -1.1942,0 0,9.39439 0.95536,0 0,-8.04096 0.0265,0 5.59948,8.04096 1.1942,0 0,-9.39439 -0.95536,0 0,7.96135 -0.0265,0 -5.59948,-7.96135 z" />
    <path
       inkscape:connector-curvature="0"
       id="path4345"
       style="font-style:normal;font-variant:normal;font-weight:normal;font-stretch:normal;font-size:medium;line-height:125%;font-family:'Avenir LT Std';-inkscape-font-specification:'Avenir LT Std, Normal';text-align:start;letter-spacing:1.54999995px;word-spacing:0px;writing-mode:lr-tb;text-anchor:start;fill:#000000;fill-opacity:1;stroke:none;stroke-width:1px;stroke-linecap:butt;stroke-linejoin:miter;stroke-opacity:1"
       d="m 598.4619,177.36606 -0.95536,0 0,9.39439 0.95536,0 0,-9.39439 z" />
    <path
       inkscape:connector-curvature="0"
       id="path4347"
       style="font-style:normal;font-variant:normal;font-weight:normal;font-stretch:normal;font-size:medium;line-height:125%;font-family:'Avenir LT Std';-inkscape-font-specification:'Avenir LT Std, Normal';text-align:start;letter-spacing:1.54999995px;word-spacing:0px;writing-mode:lr-tb;text-anchor:start;fill:#000000;fill-opacity:1;stroke:none;stroke-width:1px;stroke-linecap:butt;stroke-linejoin:miter;stroke-opacity:1"
       d="m 607.87422,184.29243 4.80335,0 1.03498,2.46802 1.11459,0 -4.08683,-9.39439 -0.92882,0 -4.08683,9.39439 1.11459,0 1.03497,-2.46802 z m 2.40168,-5.81178 2.03014,4.93604 -4.07356,0 2.04342,-4.93604 z" />
    <path
       inkscape:connector-curvature="0"
       id="path4349"
       style="font-style:normal;font-variant:normal;font-weight:normal;font-stretch:normal;font-size:medium;line-height:125%;font-family:'Avenir LT Std';-inkscape-font-specification:'Avenir LT Std, Normal';text-align:start;letter-spacing:1.54999995px;word-spacing:0px;writing-mode:lr-tb;text-anchor:start;fill:#000000;fill-opacity:1;stroke:none;stroke-width:1px;stroke-linecap:butt;stroke-linejoin:miter;stroke-opacity:1"
       d="m 622.92599,178.26835 c -0.74306,-0.84922 -1.59227,-1.14113 -2.65379,-1.14113 -1.52592,0 -3.03858,0.84921 -3.03858,2.66705 0,3.43665 4.81662,1.9638 4.81662,4.61758 0,1.10132 -1.07478,1.71169 -2.01688,1.71169 -0.9819,0 -1.73822,-0.45114 -2.13629,-1.14112 l -0.86248,0.62364 c 0.71652,0.9819 1.81784,1.39323 2.95897,1.39323 1.48612,0 3.09166,-1.00843 3.09166,-2.72013 0,-3.38357 -4.81662,-2.04341 -4.81662,-4.57777 0,-1.18094 1.0217,-1.69842 2.0036,-1.69842 0.79614,0 1.40651,0.30518 1.81785,0.91555 l 0.83594,-0.65017 z" />
    <path
       inkscape:connector-curvature="0"
       id="path4351"
       style="font-style:normal;font-variant:normal;font-weight:normal;font-stretch:normal;font-size:medium;line-height:125%;font-family:'Avenir LT Std';-inkscape-font-specification:'Avenir LT Std, Normal';text-align:start;letter-spacing:1.54999995px;word-spacing:0px;writing-mode:lr-tb;text-anchor:start;fill:#000000;fill-opacity:1;stroke:none;stroke-width:1px;stroke-linecap:butt;stroke-linejoin:miter;stroke-opacity:1"
       d="m 631.86199,178.26835 c -0.74306,-0.84922 -1.59227,-1.14113 -2.65378,-1.14113 -1.52593,0 -3.03858,0.84921 -3.03858,2.66705 0,3.43665 4.81661,1.9638 4.81661,4.61758 0,1.10132 -1.07478,1.71169 -2.01687,1.71169 -0.9819,0 -1.73823,-0.45114 -2.1363,-1.14112 l -0.86248,0.62364 c 0.71653,0.9819 1.81785,1.39323 2.95897,1.39323 1.48612,0 3.09166,-1.00843 3.09166,-2.72013 0,-3.38357 -4.81662,-2.04341 -4.81662,-4.57777 0,-1.18094 1.02171,-1.69842 2.00361,-1.69842 0.79613,0 1.4065,0.30518 1.81784,0.91555 l 0.83594,-0.65017 z" />
    <path
       inkscape:connector-curvature="0"
       id="path4353"
       style="font-style:normal;font-variant:normal;font-weight:normal;font-stretch:normal;font-size:medium;line-height:125%;font-family:'Avenir LT Std';-inkscape-font-specification:'Avenir LT Std, Normal';text-align:start;letter-spacing:1.54999995px;word-spacing:0px;writing-mode:lr-tb;text-anchor:start;fill:#000000;fill-opacity:1;stroke:none;stroke-width:1px;stroke-linecap:butt;stroke-linejoin:miter;stroke-opacity:1"
       d="m 644.67252,182.06326 c 0,-2.85282 -2.09649,-4.93604 -4.89623,-4.93604 -2.79974,0 -4.89623,2.08322 -4.89623,4.93604 0,2.85281 2.09649,4.93603 4.89623,4.93603 2.79974,0 4.89623,-2.08322 4.89623,-4.93603 z m -1.03497,0 c 0,2.16283 -1.44632,4.06028 -3.86126,4.06028 -2.41494,0 -3.86125,-1.89745 -3.86125,-4.06028 0,-2.16284 1.44631,-4.06029 3.86125,-4.06029 2.41494,0 3.86126,1.89745 3.86126,4.06029 z" />
    <path
       inkscape:connector-curvature="0"
       id="path4355"
       style="font-style:normal;font-variant:normal;font-weight:normal;font-stretch:normal;font-size:medium;line-height:125%;font-family:'Avenir LT Std';-inkscape-font-specification:'Avenir LT Std, Normal';text-align:start;letter-spacing:1.54999995px;word-spacing:0px;writing-mode:lr-tb;text-anchor:start;fill:#000000;fill-opacity:1;stroke:none;stroke-width:1px;stroke-linecap:butt;stroke-linejoin:miter;stroke-opacity:1"
       d="m 655.08597,184.71704 c -0.70325,1.08805 -1.71169,1.4065 -2.69359,1.4065 -2.41494,0 -3.86126,-1.89745 -3.86126,-4.06028 0,-2.16284 1.44632,-4.06029 3.86126,-4.06029 0.99517,0 2.04341,0.62364 2.41494,1.23401 l 0.83594,-0.62364 c -0.82267,-1.04825 -2.08322,-1.48612 -3.25088,-1.48612 -2.79974,0 -4.89623,2.08322 -4.89623,4.93604 0,2.85281 2.09649,4.93603 4.89623,4.93603 1.55246,0 2.85282,-0.75633 3.47646,-1.72496 l -0.78287,-0.55729 z" />
    <path
       inkscape:connector-curvature="0"
       id="path4357"
       style="font-style:normal;font-variant:normal;font-weight:normal;font-stretch:normal;font-size:medium;line-height:125%;font-family:'Avenir LT Std';-inkscape-font-specification:'Avenir LT Std, Normal';text-align:start;letter-spacing:1.54999995px;word-spacing:0px;writing-mode:lr-tb;text-anchor:start;fill:#000000;fill-opacity:1;stroke:none;stroke-width:1px;stroke-linecap:butt;stroke-linejoin:miter;stroke-opacity:1"
       d="m 659.96812,177.36606 -0.95536,0 0,9.39439 0.95536,0 0,-9.39439 z" />
    <path
       inkscape:connector-curvature="0"
       id="path4359"
       style="font-style:normal;font-variant:normal;font-weight:normal;font-stretch:normal;font-size:medium;line-height:125%;font-family:'Avenir LT Std';-inkscape-font-specification:'Avenir LT Std, Normal';text-align:start;letter-spacing:1.54999995px;word-spacing:0px;writing-mode:lr-tb;text-anchor:start;fill:#000000;fill-opacity:1;stroke:none;stroke-width:1px;stroke-linecap:butt;stroke-linejoin:miter;stroke-opacity:1"
       d="m 664.93715,184.29243 4.80335,0 1.03497,2.46802 1.11459,0 -4.08682,-9.39439 -0.92883,0 -4.08682,9.39439 1.11459,0 1.03497,-2.46802 z m 2.40167,-5.81178 2.03015,4.93604 -4.07356,0 2.04341,-4.93604 z" />
    <path
       inkscape:connector-curvature="0"
       id="path4361"
       style="font-style:normal;font-variant:normal;font-weight:normal;font-stretch:normal;font-size:medium;line-height:125%;font-family:'Avenir LT Std';-inkscape-font-specification:'Avenir LT Std, Normal';text-align:start;letter-spacing:1.54999995px;word-spacing:0px;writing-mode:lr-tb;text-anchor:start;fill:#000000;fill-opacity:1;stroke:none;stroke-width:1px;stroke-linecap:butt;stroke-linejoin:miter;stroke-opacity:1"
       d="m 676.81286,178.24181 3.14473,0 0,-0.87575 -7.24483,0 0,0.87575 3.14473,0 0,8.51864 0.95537,0 0,-8.51864 z" />
    <path
       inkscape:connector-curvature="0"
       id="path4363"
       style="font-style:normal;font-variant:normal;font-weight:normal;font-stretch:normal;font-size:medium;line-height:125%;font-family:'Avenir LT Std';-inkscape-font-specification:'Avenir LT Std, Normal';text-align:start;letter-spacing:1.54999995px;word-spacing:0px;writing-mode:lr-tb;text-anchor:start;fill:#000000;fill-opacity:1;stroke:none;stroke-width:1px;stroke-linecap:butt;stroke-linejoin:miter;stroke-opacity:1"
       d="m 683.92542,177.36606 -0.95536,0 0,9.39439 0.95536,0 0,-9.39439 z" />
    <path
       inkscape:connector-curvature="0"
       id="path4365"
       style="font-style:normal;font-variant:normal;font-weight:normal;font-stretch:normal;font-size:medium;line-height:125%;font-family:'Avenir LT Std';-inkscape-font-specification:'Avenir LT Std, Normal';text-align:start;letter-spacing:1.54999995px;word-spacing:0px;writing-mode:lr-tb;text-anchor:start;fill:#000000;fill-opacity:1;stroke:none;stroke-width:1px;stroke-linecap:butt;stroke-linejoin:miter;stroke-opacity:1"
       d="m 697.17426,182.06326 c 0,-2.85282 -2.09649,-4.93604 -4.89623,-4.93604 -2.79974,0 -4.89623,2.08322 -4.89623,4.93604 0,2.85281 2.09649,4.93603 4.89623,4.93603 2.79974,0 4.89623,-2.08322 4.89623,-4.93603 z m -1.03497,0 c 0,2.16283 -1.44632,4.06028 -3.86126,4.06028 -2.41494,0 -3.86125,-1.89745 -3.86125,-4.06028 0,-2.16284 1.44631,-4.06029 3.86125,-4.06029 2.41494,0 3.86126,1.89745 3.86126,4.06029 z" />
    <path
       inkscape:connector-curvature="0"
       id="path4367"
       style="font-style:normal;font-variant:normal;font-weight:normal;font-stretch:normal;font-size:medium;line-height:125%;font-family:'Avenir LT Std';-inkscape-font-specification:'Avenir LT Std, Normal';text-align:start;letter-spacing:1.54999995px;word-spacing:0px;writing-mode:lr-tb;text-anchor:start;fill:#000000;fill-opacity:1;stroke:none;stroke-width:1px;stroke-linecap:butt;stroke-linejoin:miter;stroke-opacity:1"
       d="m 701.82897,177.36606 -1.1942,0 0,9.39439 0.95536,0 0,-8.04096 0.0265,0 5.59948,8.04096 1.1942,0 0,-9.39439 -0.95536,0 0,7.96135 -0.0265,0 -5.59948,-7.96135 z" />
  </g>
</svg>
